<mxfile host="app.diagrams.net" modified="2021-12-27T19:10:53.992Z" agent="5.0 (X11; Linux x86_64) AppleWebKit/537.36 (KHTML, like Gecko) Chrome/94.0.4606.85 YaBrowser/21.11.3.954 (beta) Yowser/2.5 Safari/537.36" etag="_A0BfBRSr-aXqjpGmlNE" version="16.1.0" type="github">
  <diagram name="Page-1" id="929967ad-93f9-6ef4-fab6-5d389245f69c">
    <mxGraphModel dx="1122" dy="772" grid="1" gridSize="10" guides="1" tooltips="1" connect="1" arrows="1" fold="1" page="1" pageScale="1.5" pageWidth="1169" pageHeight="826" background="none" math="0" shadow="0">
      <root>
        <mxCell id="0" style=";html=1;" />
        <mxCell id="1" style=";html=1;" parent="0" />
        <mxCell id="nbDW6PeAIt83JGB_hp0g-14" style="edgeStyle=orthogonalEdgeStyle;rounded=0;orthogonalLoop=1;jettySize=auto;html=1;entryX=0;entryY=0.5;entryDx=0;entryDy=0;fontColor=#000000;endArrow=diamondThin;endFill=1;" edge="1" parent="1" source="1672d66443f91eb5-2" target="nbDW6PeAIt83JGB_hp0g-10">
          <mxGeometry relative="1" as="geometry" />
        </mxCell>
        <mxCell id="1672d66443f91eb5-2" value="&amp;lt;&amp;lt;Struct&amp;gt;&amp;gt; Transaction:&lt;br&gt;&lt;ul&gt;&lt;li&gt;тип сделки (&lt;span style=&quot;font-size: 14px ; font-weight: 400 ; background-color: rgb(255 , 255 , 255)&quot;&gt;покупка/продажа/дивидендная либо купонная доходность/&lt;/span&gt;&lt;span style=&quot;font-size: 14px ; font-weight: 400&quot;&gt;комиссия&lt;/span&gt;)(enum class)&lt;/li&gt;&lt;li&gt;дата&amp;nbsp; и время (std::time)&lt;/li&gt;&lt;li&gt;цена за единицу (double)&lt;/li&gt;&lt;li&gt;валюта (enum)&lt;/li&gt;&lt;li&gt;количество (double)&lt;/li&gt;&lt;li&gt;сумма сделки (double)&lt;/li&gt;&lt;/ul&gt;" style="shape=folder;tabWidth=80;tabHeight=20;tabPosition=left;strokeWidth=1;html=1;whiteSpace=wrap;align=left;fontSize=12;fontStyle=1" parent="1" vertex="1">
          <mxGeometry x="130" y="840" width="260" height="210" as="geometry" />
        </mxCell>
        <mxCell id="nbDW6PeAIt83JGB_hp0g-13" style="edgeStyle=orthogonalEdgeStyle;rounded=0;orthogonalLoop=1;jettySize=auto;html=1;entryX=1;entryY=0.5;entryDx=0;entryDy=0;fontColor=#000000;" edge="1" parent="1" source="1672d66443f91eb5-3" target="nbDW6PeAIt83JGB_hp0g-3">
          <mxGeometry relative="1" as="geometry" />
        </mxCell>
        <mxCell id="1672d66443f91eb5-3" value="&lt;b&gt;&lt;br&gt;Файл со сделками&lt;br&gt;&lt;br&gt;&lt;/b&gt;" style="shape=note;size=15;align=left;spacingLeft=10;html=1;whiteSpace=wrap;strokeColor=#000000;strokeWidth=1;fillColor=#ffffff;fontSize=12;" parent="1" vertex="1">
          <mxGeometry x="1120" y="540" width="300" height="60" as="geometry" />
        </mxCell>
        <mxCell id="1672d66443f91eb5-23" value="Title" style="text;strokeColor=none;fillColor=none;html=1;fontSize=24;fontStyle=1;verticalAlign=middle;align=center;" parent="1" vertex="1">
          <mxGeometry x="120" y="40" width="1510" height="40" as="geometry" />
        </mxCell>
        <mxCell id="nbDW6PeAIt83JGB_hp0g-1" value="ReadTable" style="swimlane;fontStyle=0;childLayout=stackLayout;horizontal=1;startSize=26;fillColor=none;horizontalStack=0;resizeParent=1;resizeParentMax=0;resizeLast=0;collapsible=1;marginBottom=0;shadow=0;labelBackgroundColor=#FFFFFF;fontColor=#000000;" vertex="1" parent="1">
          <mxGeometry x="470" y="540" width="520" height="214" as="geometry" />
        </mxCell>
        <mxCell id="nbDW6PeAIt83JGB_hp0g-5" value="public:" style="text;strokeColor=none;fillColor=none;align=left;verticalAlign=top;spacingLeft=4;spacingRight=4;overflow=hidden;rotatable=0;points=[[0,0.5],[1,0.5]];portConstraint=eastwest;shadow=0;labelBackgroundColor=#FFFFFF;fontColor=#000000;" vertex="1" parent="nbDW6PeAIt83JGB_hp0g-1">
          <mxGeometry y="26" width="520" height="34" as="geometry" />
        </mxCell>
        <mxCell id="nbDW6PeAIt83JGB_hp0g-3" value="bool add_table( std::filetype *путь до файла*, enum *тип брокера* )" style="text;strokeColor=none;fillColor=none;align=left;verticalAlign=top;spacingLeft=4;spacingRight=4;overflow=hidden;rotatable=0;points=[[0,0.5],[1,0.5]];portConstraint=eastwest;shadow=0;labelBackgroundColor=#FFFFFF;fontColor=#000000;" vertex="1" parent="nbDW6PeAIt83JGB_hp0g-1">
          <mxGeometry y="60" width="520" height="30" as="geometry" />
        </mxCell>
        <mxCell id="nbDW6PeAIt83JGB_hp0g-9" value="const std::map&lt; std::string, std::vector&lt; Transaction &gt; &gt; &amp;&#xa;get_transactions_map()" style="text;strokeColor=none;fillColor=none;align=left;verticalAlign=top;spacingLeft=4;spacingRight=4;overflow=hidden;rotatable=0;points=[[0,0.5],[1,0.5]];portConstraint=eastwest;shadow=0;labelBackgroundColor=#FFFFFF;fontColor=#000000;" vertex="1" parent="nbDW6PeAIt83JGB_hp0g-1">
          <mxGeometry y="90" width="520" height="46" as="geometry" />
        </mxCell>
        <mxCell id="nbDW6PeAIt83JGB_hp0g-8" value="protected:" style="text;strokeColor=none;fillColor=none;align=left;verticalAlign=top;spacingLeft=4;spacingRight=4;overflow=hidden;rotatable=0;points=[[0,0.5],[1,0.5]];portConstraint=eastwest;shadow=0;labelBackgroundColor=#FFFFFF;fontColor=#000000;" vertex="1" parent="nbDW6PeAIt83JGB_hp0g-1">
          <mxGeometry y="136" width="520" height="26" as="geometry" />
        </mxCell>
        <mxCell id="nbDW6PeAIt83JGB_hp0g-4" value="virtual parce( std::ifstream &amp; file_data )" style="text;strokeColor=none;fillColor=none;align=left;verticalAlign=top;spacingLeft=4;spacingRight=4;overflow=hidden;rotatable=0;points=[[0,0.5],[1,0.5]];portConstraint=eastwest;shadow=0;labelBackgroundColor=#FFFFFF;fontColor=#000000;" vertex="1" parent="nbDW6PeAIt83JGB_hp0g-1">
          <mxGeometry y="162" width="520" height="26" as="geometry" />
        </mxCell>
        <mxCell id="nbDW6PeAIt83JGB_hp0g-10" value="std::map&lt; std::string, std::vector&lt; Transaction &gt; &gt; transactions_map&#xa; " style="text;strokeColor=none;fillColor=none;align=left;verticalAlign=top;spacingLeft=4;spacingRight=4;overflow=hidden;rotatable=0;points=[[0,0.5],[1,0.5]];portConstraint=eastwest;shadow=0;labelBackgroundColor=#FFFFFF;fontColor=#000000;" vertex="1" parent="nbDW6PeAIt83JGB_hp0g-1">
          <mxGeometry y="188" width="520" height="26" as="geometry" />
        </mxCell>
      </root>
    </mxGraphModel>
  </diagram>
</mxfile>
